<svg width="900" height="600" viewBox="0 0 900 600" fill="none" xmlns="http://www.w3.org/2000/svg">
<g id="Group 1">
<g id="bg-intro" clip-path="url(#clip0_1_9)">
<path id="Vector" d="M900 0H0V600H900V0Z" fill="#040F16"/>
<path id="Vector_2" d="M0 363L30 364.3C60 365.7 120 368.3 180 377.5C240 386.7 300 402.3 360 416.2C420 430 480 442 540 436C600 430 660 406 720 389.2C780 372.3 840 362.7 870 357.8L900 353V601H870C840 601 780 601 720 601C660 601 600 601 540 601C480 601 420 601 360 601C300 601 240 601 180 601C120 601 60 601 30 601H0V363Z" fill="#777DA7"/>
<path id="Vector_3" d="M0 402L30 417.3C60 432.7 120 463.3 180 470.8C240 478.3 300 462.7 360 453C420 443.3 480 439.7 540 430C600 420.3 660 404.7 720 405.7C780 406.7 840 424.3 870 433.2L900 442V601H870C840 601 780 601 720 601C660 601 600 601 540 601C480 601 420 601 360 601C300 601 240 601 180 601C120 601 60 601 30 601H0V402Z" fill="#7CA0BB"/>
<path id="Vector_4" d="M0 496L30 496.2C60 496.3 120 496.7 180 490.2C240 483.7 300 470.3 360 471C420 471.7 480 486.3 540 492.8C600 499.3 660 497.7 720 500C780 502.3 840 508.7 870 511.8L900 515V601H870C840 601 780 601 720 601C660 601 600 601 540 601C480 601 420 601 360 601C300 601 240 601 180 601C120 601 60 601 30 601H0V496Z" fill="#99BFC7"/>
<path id="Vector_5" d="M0 510L30 507C60 504 120 498 180 493.5C240 489 300 486 360 489.7C420 493.3 480 503.7 540 506.8C600 510 660 506 720 509.2C780 512.3 840 522.7 870 527.8L900 533V601H870C840 601 780 601 720 601C660 601 600 601 540 601C480 601 420 601 360 601C300 601 240 601 180 601C120 601 60 601 30 601H0V510Z" fill="#C5DBD6"/>
<path id="Vector_6" d="M0 515L30 520.3C60 525.7 120 536.3 180 544C240 551.7 300 556.3 360 553.3C420 550.3 480 539.7 540 533.2C600 526.7 660 524.3 720 523.3C780 522.3 840 522.7 870 522.8L900 523V601H870C840 601 780 601 720 601C660 601 600 601 540 601C480 601 420 601 360 601C300 601 240 601 180 601C120 601 60 601 30 601H0V515Z" fill="#040F16"/>
</g>
</g>
<defs>
<clipPath id="clip0_1_9">
<rect width="900" height="600" fill="white"/>
</clipPath>
</defs>
</svg>
