<svg id="visual" viewBox="0 0 900 600" width="900" height="600" xmlns="http://www.w3.org/2000/svg" xmlns:xlink="http://www.w3.org/1999/xlink" version="1.1"><rect x="0" y="0" width="900" height="600" fill="#001220"></rect><path d="M0 204L21.5 197.8C43 191.7 86 179.3 128.8 182.2C171.7 185 214.3 203 257.2 210.5C300 218 343 215 385.8 210.5C428.7 206 471.3 200 514.2 202.5C557 205 600 216 642.8 218C685.7 220 728.3 213 771.2 209.7C814 206.3 857 206.7 878.5 206.8L900 207L900 0L878.5 0C857 0 814 0 771.2 0C728.3 0 685.7 0 642.8 0C600 0 557 0 514.2 0C471.3 0 428.7 0 385.8 0C343 0 300 0 257.2 0C214.3 0 171.7 0 128.8 0C86 0 43 0 21.5 0L0 0Z" fill="#001220"></path><path d="M0 225L21.5 213C43 201 86 177 128.8 167.7C171.7 158.3 214.3 163.7 257.2 164.2C300 164.7 343 160.3 385.8 157.8C428.7 155.3 471.3 154.7 514.2 158.5C557 162.3 600 170.7 642.8 174.5C685.7 178.3 728.3 177.7 771.2 178.5C814 179.3 857 181.7 878.5 182.8L900 184L900 0L878.5 0C857 0 814 0 771.2 0C728.3 0 685.7 0 642.8 0C600 0 557 0 514.2 0C471.3 0 428.7 0 385.8 0C343 0 300 0 257.2 0C214.3 0 171.7 0 128.8 0C86 0 43 0 21.5 0L0 0Z" fill="#1b2835"></path><path d="M0 194L21.5 194.2C43 194.3 86 194.7 128.8 187C171.7 179.3 214.3 163.7 257.2 165.7C300 167.7 343 187.3 385.8 196C428.7 204.7 471.3 202.3 514.2 191C557 179.7 600 159.3 642.8 152C685.7 144.7 728.3 150.3 771.2 156.3C814 162.3 857 168.7 878.5 171.8L900 175L900 0L878.5 0C857 0 814 0 771.2 0C728.3 0 685.7 0 642.8 0C600 0 557 0 514.2 0C471.3 0 428.7 0 385.8 0C343 0 300 0 257.2 0C214.3 0 171.7 0 128.8 0C86 0 43 0 21.5 0L0 0Z" fill="#343f4b"></path><path d="M0 162L21.5 155.8C43 149.7 86 137.3 128.8 130C171.7 122.7 214.3 120.3 257.2 121.3C300 122.3 343 126.7 385.8 134C428.7 141.3 471.3 151.7 514.2 158.8C557 166 600 170 642.8 167.5C685.7 165 728.3 156 771.2 155.8C814 155.7 857 164.3 878.5 168.7L900 173L900 0L878.5 0C857 0 814 0 771.2 0C728.3 0 685.7 0 642.8 0C600 0 557 0 514.2 0C471.3 0 428.7 0 385.8 0C343 0 300 0 257.2 0C214.3 0 171.7 0 128.8 0C86 0 43 0 21.5 0L0 0Z" fill="#4e5762"></path><path d="M0 135L21.5 129.8C43 124.7 86 114.3 128.8 113.2C171.7 112 214.3 120 257.2 119.8C300 119.7 343 111.3 385.8 111.8C428.7 112.3 471.3 121.7 514.2 129.7C557 137.7 600 144.3 642.8 139C685.7 133.7 728.3 116.3 771.2 112C814 107.7 857 116.3 878.5 120.7L900 125L900 0L878.5 0C857 0 814 0 771.2 0C728.3 0 685.7 0 642.8 0C600 0 557 0 514.2 0C471.3 0 428.7 0 385.8 0C343 0 300 0 257.2 0C214.3 0 171.7 0 128.8 0C86 0 43 0 21.5 0L0 0Z" fill="#69717b"></path><path d="M0 118L21.5 116.8C43 115.7 86 113.3 128.8 115.5C171.7 117.7 214.3 124.3 257.2 124.7C300 125 343 119 385.8 117.2C428.7 115.3 471.3 117.7 514.2 117.5C557 117.3 600 114.7 642.8 109.2C685.7 103.7 728.3 95.3 771.2 95.7C814 96 857 105 878.5 109.5L900 114L900 0L878.5 0C857 0 814 0 771.2 0C728.3 0 685.7 0 642.8 0C600 0 557 0 514.2 0C471.3 0 428.7 0 385.8 0C343 0 300 0 257.2 0C214.3 0 171.7 0 128.8 0C86 0 43 0 21.5 0L0 0Z" fill="#858b94"></path><path d="M0 105L21.5 104.2C43 103.3 86 101.7 128.8 94.8C171.7 88 214.3 76 257.2 75C300 74 343 84 385.8 89.7C428.7 95.3 471.3 96.7 514.2 98.2C557 99.7 600 101.3 642.8 97.3C685.7 93.3 728.3 83.7 771.2 83.5C814 83.3 857 92.7 878.5 97.3L900 102L900 0L878.5 0C857 0 814 0 771.2 0C728.3 0 685.7 0 642.8 0C600 0 557 0 514.2 0C471.3 0 428.7 0 385.8 0C343 0 300 0 257.2 0C214.3 0 171.7 0 128.8 0C86 0 43 0 21.5 0L0 0Z" fill="#a2a7ad"></path><path d="M0 81L21.5 75.7C43 70.3 86 59.7 128.8 57C171.7 54.3 214.3 59.7 257.2 64.7C300 69.7 343 74.3 385.8 75.2C428.7 76 471.3 73 514.2 74C557 75 600 80 642.8 78.8C685.7 77.7 728.3 70.3 771.2 64.8C814 59.3 857 55.7 878.5 53.8L900 52L900 0L878.5 0C857 0 814 0 771.2 0C728.3 0 685.7 0 642.8 0C600 0 557 0 514.2 0C471.3 0 428.7 0 385.8 0C343 0 300 0 257.2 0C214.3 0 171.7 0 128.8 0C86 0 43 0 21.5 0L0 0Z" fill="#c0c4c8"></path><path d="M0 50L21.5 49C43 48 86 46 128.8 47.7C171.7 49.3 214.3 54.7 257.2 54.2C300 53.7 343 47.3 385.8 43.8C428.7 40.3 471.3 39.7 514.2 40.5C557 41.3 600 43.7 642.8 47.5C685.7 51.3 728.3 56.7 771.2 56C814 55.3 857 48.7 878.5 45.3L900 42L900 0L878.5 0C857 0 814 0 771.2 0C728.3 0 685.7 0 642.8 0C600 0 557 0 514.2 0C471.3 0 428.7 0 385.8 0C343 0 300 0 257.2 0C214.3 0 171.7 0 128.8 0C86 0 43 0 21.5 0L0 0Z" fill="#dfe1e3"></path><path d="M0 40L21.5 37.5C43 35 86 30 128.8 27.2C171.7 24.3 214.3 23.7 257.2 23.8C300 24 343 25 385.8 24.2C428.7 23.3 471.3 20.7 514.2 20.5C557 20.3 600 22.7 642.8 21.8C685.7 21 728.3 17 771.2 16.5C814 16 857 19 878.5 20.5L900 22L900 0L878.5 0C857 0 814 0 771.2 0C728.3 0 685.7 0 642.8 0C600 0 557 0 514.2 0C471.3 0 428.7 0 385.8 0C343 0 300 0 257.2 0C214.3 0 171.7 0 128.8 0C86 0 43 0 21.5 0L0 0Z" fill="#ffffff"></path></svg>