<svg id="visual" viewBox="0 0 900 600" width="900" height="600" xmlns="http://www.w3.org/2000/svg" xmlns:xlink="http://www.w3.org/1999/xlink" version="1.1"><rect x="0" y="0" width="900" height="600" fill="#001220"></rect><path d="M0 410L21.5 405C43 400 86 390 128.8 383.5C171.7 377 214.3 374 257.2 369.7C300 365.3 343 359.7 385.8 369C428.7 378.3 471.3 402.7 514.2 407.2C557 411.7 600 396.3 642.8 386.8C685.7 377.3 728.3 373.7 771.2 379.5C814 385.3 857 400.7 878.5 408.3L900 416L900 601L878.5 601C857 601 814 601 771.2 601C728.3 601 685.7 601 642.8 601C600 601 557 601 514.2 601C471.3 601 428.7 601 385.8 601C343 601 300 601 257.2 601C214.3 601 171.7 601 128.8 601C86 601 43 601 21.5 601L0 601Z" fill="#b89ad3"></path><path d="M0 377L21.5 387.7C43 398.3 86 419.7 128.8 420.3C171.7 421 214.3 401 257.2 395.7C300 390.3 343 399.7 385.8 410.3C428.7 421 471.3 433 514.2 429.5C557 426 600 407 642.8 404.7C685.7 402.3 728.3 416.7 771.2 423.5C814 430.3 857 429.7 878.5 429.3L900 429L900 601L878.5 601C857 601 814 601 771.2 601C728.3 601 685.7 601 642.8 601C600 601 557 601 514.2 601C471.3 601 428.7 601 385.8 601C343 601 300 601 257.2 601C214.3 601 171.7 601 128.8 601C86 601 43 601 21.5 601L0 601Z" fill="#9e8abf"></path><path d="M0 453L21.5 450.2C43 447.3 86 441.7 128.8 441.5C171.7 441.3 214.3 446.7 257.2 451.5C300 456.3 343 460.7 385.8 458.5C428.7 456.3 471.3 447.7 514.2 443.7C557 439.7 600 440.3 642.8 435.3C685.7 430.3 728.3 419.7 771.2 420.7C814 421.7 857 434.3 878.5 440.7L900 447L900 601L878.5 601C857 601 814 601 771.2 601C728.3 601 685.7 601 642.8 601C600 601 557 601 514.2 601C471.3 601 428.7 601 385.8 601C343 601 300 601 257.2 601C214.3 601 171.7 601 128.8 601C86 601 43 601 21.5 601L0 601Z" fill="#857bab"></path><path d="M0 447L21.5 445.3C43 443.7 86 440.3 128.8 440.8C171.7 441.3 214.3 445.7 257.2 452.2C300 458.7 343 467.3 385.8 464.8C428.7 462.3 471.3 448.7 514.2 440C557 431.3 600 427.7 642.8 432.2C685.7 436.7 728.3 449.3 771.2 449C814 448.7 857 435.3 878.5 428.7L900 422L900 601L878.5 601C857 601 814 601 771.2 601C728.3 601 685.7 601 642.8 601C600 601 557 601 514.2 601C471.3 601 428.7 601 385.8 601C343 601 300 601 257.2 601C214.3 601 171.7 601 128.8 601C86 601 43 601 21.5 601L0 601Z" fill="#6d6b97"></path><path d="M0 446L21.5 445.3C43 444.7 86 443.3 128.8 447.5C171.7 451.7 214.3 461.3 257.2 468C300 474.7 343 478.3 385.8 476.3C428.7 474.3 471.3 466.7 514.2 462C557 457.3 600 455.7 642.8 457.5C685.7 459.3 728.3 464.7 771.2 467.2C814 469.7 857 469.3 878.5 469.2L900 469L900 601L878.5 601C857 601 814 601 771.2 601C728.3 601 685.7 601 642.8 601C600 601 557 601 514.2 601C471.3 601 428.7 601 385.8 601C343 601 300 601 257.2 601C214.3 601 171.7 601 128.8 601C86 601 43 601 21.5 601L0 601Z" fill="#575c82"></path><path d="M0 490L21.5 492.2C43 494.3 86 498.7 128.8 498.8C171.7 499 214.3 495 257.2 496.2C300 497.3 343 503.7 385.8 505.7C428.7 507.7 471.3 505.3 514.2 499.7C557 494 600 485 642.8 486.2C685.7 487.3 728.3 498.7 771.2 500.8C814 503 857 496 878.5 492.5L900 489L900 601L878.5 601C857 601 814 601 771.2 601C728.3 601 685.7 601 642.8 601C600 601 557 601 514.2 601C471.3 601 428.7 601 385.8 601C343 601 300 601 257.2 601C214.3 601 171.7 601 128.8 601C86 601 43 601 21.5 601L0 601Z" fill="#434c6e"></path><path d="M0 505L21.5 506.3C43 507.7 86 510.3 128.8 512.3C171.7 514.3 214.3 515.7 257.2 518.5C300 521.3 343 525.7 385.8 524C428.7 522.3 471.3 514.7 514.2 508.7C557 502.7 600 498.3 642.8 502.3C685.7 506.3 728.3 518.7 771.2 522.8C814 527 857 523 878.5 521L900 519L900 601L878.5 601C857 601 814 601 771.2 601C728.3 601 685.7 601 642.8 601C600 601 557 601 514.2 601C471.3 601 428.7 601 385.8 601C343 601 300 601 257.2 601C214.3 601 171.7 601 128.8 601C86 601 43 601 21.5 601L0 601Z" fill="#303d59"></path><path d="M0 547L21.5 540.8C43 534.7 86 522.3 128.8 518.7C171.7 515 214.3 520 257.2 521.5C300 523 343 521 385.8 519.5C428.7 518 471.3 517 514.2 518C557 519 600 522 642.8 526.8C685.7 531.7 728.3 538.3 771.2 539.5C814 540.7 857 536.3 878.5 534.2L900 532L900 601L878.5 601C857 601 814 601 771.2 601C728.3 601 685.7 601 642.8 601C600 601 557 601 514.2 601C471.3 601 428.7 601 385.8 601C343 601 300 601 257.2 601C214.3 601 171.7 601 128.8 601C86 601 43 601 21.5 601L0 601Z" fill="#1f2f45"></path><path d="M0 567L21.5 561.7C43 556.3 86 545.7 128.8 544.2C171.7 542.7 214.3 550.3 257.2 555C300 559.7 343 561.3 385.8 559.5C428.7 557.7 471.3 552.3 514.2 551C557 549.7 600 552.3 642.8 554.5C685.7 556.7 728.3 558.3 771.2 556.2C814 554 857 548 878.5 545L900 542L900 601L878.5 601C857 601 814 601 771.2 601C728.3 601 685.7 601 642.8 601C600 601 557 601 514.2 601C471.3 601 428.7 601 385.8 601C343 601 300 601 257.2 601C214.3 601 171.7 601 128.8 601C86 601 43 601 21.5 601L0 601Z" fill="#0f2032"></path><path d="M0 560L21.5 561.8C43 563.7 86 567.3 128.8 571C171.7 574.7 214.3 578.3 257.2 580.5C300 582.7 343 583.3 385.8 579.5C428.7 575.7 471.3 567.3 514.2 563.3C557 559.3 600 559.7 642.8 562.5C685.7 565.3 728.3 570.7 771.2 574.5C814 578.3 857 580.7 878.5 581.8L900 583L900 601L878.5 601C857 601 814 601 771.2 601C728.3 601 685.7 601 642.8 601C600 601 557 601 514.2 601C471.3 601 428.7 601 385.8 601C343 601 300 601 257.2 601C214.3 601 171.7 601 128.8 601C86 601 43 601 21.5 601L0 601Z" fill="#001220"></path></svg>